<svg xmlns="http://www.w3.org/2000/svg" viewBox="0 0 40 40" fill="none">
  <rect width="40" height="40" rx="8" fill="hsl(24.6, 95%, 53.1%)"/>
  <path d="M10 28V12h6c1.5 0 2.7.4 3.6 1.2.9.8 1.4 1.8 1.4 3 0 .9-.3 1.7-.8 2.3-.5.6-1.2 1.1-2 1.3.9.2 1.7.7 2.3 1.4.6.7.9 1.6.9 2.6 0 1.3-.5 2.4-1.5 3.2-1 .8-2.3 1.2-3.9 1.2H10zm3-9.2h3.1c.8 0 1.4-.2 1.9-.6.5-.4.7-.9.7-1.6s-.2-1.2-.7-1.6c-.5-.4-1.1-.6-1.9-.6H13v4.4zm0 6.8h3.3c.9 0 1.6-.2 2.1-.7.5-.4.8-1 .8-1.7 0-.7-.3-1.3-.8-1.7-.5-.4-1.2-.7-2.1-.7H13v4.8z" fill="white"/>
  <path d="M24 28V12h9v2.8h-6V18h5.5v2.6H27v4.6h6V28h-9z" fill="white"/>
</svg>
