<svg xmlns="http://www.w3.org/2000/svg" width="42" height="20" viewBox="0 0 42 20">
    <g fill="none" fill-rule="evenodd">
        <g stroke="#000">
            <path d="M39.344 8.668L1.436 11.151c-.091.004-.175.052-.227.128-.051.075-.064.17-.035.258.127.49.243.946.413 1.417.34.942 1.038 6.884 1.405 6.884 6.564 0 13.15-.027 19.722 0 2.258.078 4.515-.182 6.695-.772 3.537-1.116 6.498-6.556 9.008-9.232.332-.351.645-.718.97-1.077l-.043-.089zM24.544 7.985l8.008-.514 7.402-.49c.091 0 .18-.03.25-.09.325-.466.645-.937.99-1.45.06-.093.065-.212.01-.308-.055-.097-.159-.154-.27-.148l-3 .181c-1.892.116-3.78.243-5.675.344-.175-.013-.338-.095-.452-.228-1.385-1.622-2.748-3.254-4.089-4.896-.17-.254-.469-.39-.772-.351-2.76.22-5.521.417-8.282.621-1.649.124-3.297.236-4.946.363-.598.047-1.193.108-1.834.17-.07.009-.131.054-.16.119-.028.065-.02.14.021.198.348.436.672.838.965 1.262.132.19.2.418.193.649-.088 1.1-.208 2.193-.343 3.29-.033.137-.133.248-.267.293-.907.097-1.818.158-2.787.236V5.375c.525-.04.498-.04 1.054-.066.135-.007.262-.068.353-.168.09-.101.137-.234.13-.369 0-.1 0-.204-.02-.313-.007-.135-.068-.262-.17-.352-.101-.09-.235-.136-.37-.126-3.522.231-6.468.444-10.039.68-.077.003-.149.038-.2.095-.052.057-.078.132-.074.21l.035.706c.004.078.039.152.098.204.059.053.136.08.214.074l3.958-.251v1.93l-3.772.302c-.09.007-.172.055-.223.13-.05.075-.063.17-.036.256.108.386.205.737.324 1.085.074.093.187.147.305.146 2.013-.12 4.025-.25 6.035-.386l9.216-.61 8.209-.54.011-.027zm-4.258-5.468c.231 1.205.463 2.383.695 3.595.013.066-.002.135-.043.189-.04.054-.102.088-.17.093l-5.59.405c-.067.005-.133-.02-.181-.065-.049-.047-.075-.111-.074-.178.046-1.278.092-2.525.139-3.776.004-.123.101-.222.224-.228l4.791-.235c.109-.001.205.07.236.173l-.027.027zm8.417 2.803c.057.085.069.193.03.288-.039.095-.123.164-.223.184l-1.591.12c-1.259.096-2.517.2-3.78.281-.12 0-.34-.089-.36-.178-.316-1.243-.601-2.498-.903-3.776.278-.034 2.873-.254 2.873-.254s1.544-.066 1.988.586c.622.904 1.29 1.78 1.993 2.722l-.027.027zM6.03 7.525V5.614c.869-.054 1.081-.108 1.93-.162v1.884c-.837.062-1.042.123-1.93.19z"/>
        </g>
    </g>
</svg>
