<svg xmlns="http://www.w3.org/2000/svg" width="42" height="28" viewBox="0 0 42 28">
    <g fill="none" fill-rule="evenodd">
        <g stroke="#000">
            <g>
                <path d="M.124 27.444l13.39-25.158h0l13.374 25.158c.031.058.03.129-.005.186-.034.057-.095.092-.161.092h-4.1c-1.862-.003-3.552-1.086-4.332-2.776l-4.672-8.842c-.02-.041-.062-.068-.108-.068-.047 0-.089.027-.108.068l-4.248 8.707c-.992 1.865-2.478 2.907-4.39 2.907H.29c-.066 0-.126-.035-.16-.091-.033-.056-.036-.125-.006-.183z"/>
                <path stroke-linecap="round" d="M19.008 2.282H29.17l12.07 24.452c.109.222.09.486-.05.691-.14.205-.38.318-.626.297H26.722L13.514 2.286M11.946.618L13.498 2.212 14.737.618M27.236.332L28.946 1.996 30.347.332"/>
            </g>
        </g>
    </g>
</svg>
