<svg xmlns="http://www.w3.org/2000/svg" width="40" height="42" viewBox="0 0 40 42">
    <g fill="none" fill-rule="evenodd" stroke-linecap="round">
        <g stroke="#000">
            <path d="M11.664 27.193c1.807 6.324 6.294 11.97 7.877 13.95.13.164.327.26.536.26.21 0 .407-.096.537-.26 1.98-2.494 8.784-11.622 8.784-19.263 0-10.405-6.857-19.027-8.811-21.266-.128-.149-.314-.234-.51-.234s-.382.085-.51.234c-1.953 2.24-8.81 10.86-8.81 21.266"/>
            <circle cx="20.077" cy="20.892" r="4.598"/>
            <path d="M2.005 29.246h2.572c1.797 0 3.255 1.457 3.255 3.255h0c0 1.797-1.458 3.255-3.255 3.255H2.005c-.38 0-.687-.308-.687-.688V29.93c0-.38.308-.687.687-.687v.004z" transform="rotate(-36.83 4.575 32.499)"/>
            <path d="M33.012 6.043h2.572c1.791 0 3.246 1.448 3.255 3.24h0c0 1.797-1.458 3.254-3.255 3.254h-2.572c-.38 0-.687-.307-.687-.687V6.73c0-.379.308-.687.687-.687h0z" transform="rotate(143.17 35.582 9.29)"/>
            <path d="M7.185 30.548L32.97 11.236"/>
        </g>
    </g>
</svg>
