<svg xmlns="http://www.w3.org/2000/svg" width="36" height="38" viewBox="0 0 36 38">
    <g fill="none" fill-rule="evenodd" stroke-linecap="round">
        <g stroke="#000">
            <g>
                <path d="M.05.07C.31 1.71.721 3.325 1.278 4.891c2.263 6.664 8.471 18.622 24.85 25.44M7.07 15.88s-2.201 3.186-1.197 8.236M10.876 20.22s1.302-2.255 6.066-2.317M15.255 24.116s-1.124 1.81.842 4.919M21.236 17.162h0c-2.644-2.66-2.644-6.957 0-9.618l4.91-5.556 4.912 5.556c2.644 2.661 2.644 6.957 0 9.618h0c-2.713 2.71-7.11 2.71-9.822 0h0zM22.436 14.54c-.88-2.135-.393-4.59 1.236-6.227"/>
                <path d="M17.224 9.764c-1.662-.561-3.408-.832-5.162-.799h-.093c-6.46.159-10.938 5.572-10.672 12.027.047 1.116 1.228 12.672 18.996 15.36 4.599.694 10.147 1.37 15.255 0 .121-.04.215-.136.252-.258.036-.122.01-.254-.07-.353-2.676-2.969-4.807-9.69-6.95-14.475M19.88 27.224s.827-2.155 4.294-2.127"/>
            </g>
        </g>
    </g>
</svg>
