<svg xmlns="http://www.w3.org/2000/svg" width="40" height="38" viewBox="0 0 40 38">
    <g fill="none" fill-rule="evenodd">
        <g stroke="#000">
            <path d="M38.51 11.97V.157M31.911 31.093l-3.089-3.41c-.186-.2-.475-.268-.73-.17-.256.1-.426.344-.428.618v5.745s.44 3.815 5.131 3.815 5.719-2.096 5.719-3.815V18.691"/>
            <rect width="3.135" height="6.737" x="36.942" y="11.954" rx="1.568"/>
            <path stroke-linecap="round" d="M12.888 20.768l-2.112 3.475c-.074.09-.087.214-.033.317.054.102.165.162.28.15l6.564-.12c.682-.013 1.341-.246 1.88-.663l2.989-2.317 1.64-.274c4.406-.961 6.792-3.575 8.398-5.892.468-.642.468-1.512 0-2.154-2.687-3.53-6.37-5.182-9.486-6.07-.505-.145-.962-.422-1.325-.803-3.397-3.537-9.498-3.209-10.81-3.089-.06.006-.112.041-.14.094-.03.052-.03.115-.003.169l1.73 3.602c.262.534.114 1.179-.356 1.544L7.691 11.53c-.24 0-5.622-2.386-7.023-3.182C.584 8.3.483 8.294.394 8.332c-.088.038-.154.115-.178.209-.468 2.073.083 4.245 1.483 5.845C.79 15.912.26 17.633.154 19.406c-.015.143.036.286.14.387.102.102.246.15.39.134 2.4-.318 4.668-1.282 6.563-2.788M5.228 14.386s1.668 5.02 11.46 7.112M23.1 10.282s-3.378 6.058 1.997 10.78M27.66 13.216v.973"/>
        </g>
    </g>
</svg>
