<svg xmlns="http://www.w3.org/2000/svg" width="42" height="38" viewBox="0 0 42 38">
    <g fill="none" fill-rule="evenodd">
        <g stroke="#000">
            <g>
                <path d="M12.618 12.741l13.479-.08s1.791-.827 3.772-4.634c1.98-3.807 3.961-5.71 3.961-5.71L33.75.328c0-.089.1-.15.154-.077.514.569 1.1 1.069 1.742 1.486.208.136.718-.08.965 0 .247.082 3.595 4.078 4.656 5.549.411.557.356 1.33-.13 1.822h-.02c-.42.385-1.03.476-1.545.232-.548-.243-1.359-.61-1.586-.738-.858-.47-2.159-.386-2.703.386-.2.285-.306.625-.301.973v9.17c-.341 2.674-1.888 5.044-4.197 6.433-.236 1.81-2.44 8.494.598 12.428.082.107.097.25.038.372-.059.12-.181.198-.316.2h-2.146c-.102 0-.199-.044-.267-.12l-1.455-1.68c-.058-.063-.09-.146-.09-.231 0 0 .449-4.672.452-6.236.004-1.563-.455-6.34-.455-6.34s-5.448 1.815-11.058-.745c-.498.827-1.9 5.367-5.942 6.274-.66.329-3.22 4.128-1.487 6.437.66.745.576 2.64.576 2.64H6.529c-.078-.79-.55-1.489-1.255-1.856-.04-.015-.07-.05-.076-.093-.008-.042.008-.085.041-.112 1.356-1.209-1.78-8.077 2.939-10.155 3.2-1.637-2.386-1.857-2.035-8.83.166-3.204 3.255-4.776 6.475-4.776zM26.78 20.876c.1.248.506 4.688.506 4.688M15.722 23.97s.602-1.777 1.344-2.024"/>
                <path stroke-linecap="round" d="M7.475 13.73l-.054-.05c-.77-.65-1.847-.791-2.76-.364-.912.427-1.492 1.345-1.487 2.352v6.915c.006.64-.317 1.237-.855 1.582s-1.216.39-1.794.117L.371 24.2c-.089-.048-.199-.028-.265.048-.067.075-.072.187-.013.268.973 1.375 4.166 3.267 6.417-.548"/>
                <path d="M35.645 1.753L35.332.166c.004-.033-.008-.065-.03-.089-.024-.023-.057-.034-.09-.03-.278.034-.363.324-.517.992M14.606 12.741s-.772 6.371 6.128 6.128c6.293-.236 5.752-6.464 5.752-6.464M20.54 24.456c-.069-.294 0-5.599 0-5.599"/>
            </g>
        </g>
    </g>
</svg>
