<svg xmlns="http://www.w3.org/2000/svg" width="26" height="42" viewBox="0 0 26 42">
    <g fill="none" fill-rule="evenodd">
        <g stroke="#000">
            <g>
                <path d="M5.56 32.046c.2 2.291.407 4.578.618 6.861.046.525.096 1.054.146 1.58.014.172.159.305.332.305h.68c.185 0 .336-.15.336-.336v-7.41c0-.517 0-.536.54-.59 1.653-.174 2.676-.904 3.753-2.163.159-.181.552-.671.722-.9-1.544-.266-3.158-.605-4.633-.86-.17 1.61-2.39 3.44-2.494 3.513z"/>
                <path d="M21.873 8.34c.1-.031.21-.008.288.061.079.07.116.175.098.279-.128.74-.549 2.069-1.892 2.023.148 1.394-.085 2.802-.676 4.073.517 3.089 1.058 6.178 1.545 9.266.146 1.172-.153 2.356-.838 3.317-.918 1.41-2.433 2.32-4.108 2.467v.32c0 3.476-.336 6.92-.336 10.375 0 .433-.05.483-.487.483h-.594c-.099.018-.2-.01-.276-.077-.075-.066-.116-.163-.11-.263-.112-1.29-1.325-11.062-1.344-11.286l-5.097-.845c-.32 1.799-2.258 3.089-2.258 3.089-.828.455-1.737.742-2.676.845v.301c0 2.525-.336 5.05-.336 7.58 0 .386-.062.451-.463.451h-.958c-.099.021-.202-.006-.278-.073C1 40.66.96 40.56.969 40.46.838 38.973.7 37.483.583 35.992c-.154-1.69-.308-3.382-.46-5.073l-.023-.29c-.018-.088.004-.18.061-.25.057-.07.143-.11.233-.109.306-.036.611-.074.915-.116.288-.015.557-.147.745-.366.188-.219.279-.505.251-.792v-3.59c-.061-.91.074-1.823.398-2.676-.22-.14-.437-.259-.63-.406-.368-.277-.639-.666-.772-1.108-.043-.089-.04-.194.008-.28.049-.086.137-.143.235-.152 1.637-.448 3.26-.954 4.912-1.325 1.158-.258 2.316-.335 3.498-.486 1.285-.162 2.567-.317 3.86-.471.147 0 .186-.073.186-.216v-2.641c0-.147-.05-.197-.193-.213-.552-.057-2.521-.451-3.089-.51-.22-.022-.34-1.853-.127-1.995.652-.312 1.256-.715 1.795-1.197 1.108-.915 2.228-2.016 2.502-2.22 1.119-.744 2.562-.79 3.726-.12 0 0 2.39-.765 3.259-1.05z"/>
                <path stroke-linecap="round" d="M14.54 9.803c.314-.297.69-.52 1.1-.652-.068-.139-.177-.253-.312-.329-.235-.154-2.15-.853-2.984-1.158-.088-.032-.186-.016-.259.043-.072.058-.109.15-.097.243.066.533.275 1.428.92 1.876"/>
                <path d="M19.861 40.49c0-3.888.154-8.83.154-12.602-.6.712-1.34 1.294-2.173 1.71.312 3.475.695 7.383 1.015 10.916.012.12.114.212.236.212h.529c.063 0 .124-.023.169-.068.045-.044.07-.105.07-.168z"/>
                <path stroke-linecap="round" d="M11.197.266l.023 4.367c.006.792.634 1.438 1.425 1.467l3.498.128c.249-.002.453.195.46.444v2.143M18.301 9.178V7.093c.002-.379.305-.687.684-.695h3.417c.64 0 1.158-.519 1.158-1.159V.386"/>
                <path stroke-linecap="round" d="M23.58 4.633l-2.074-.969c-.242-.203-.383-.502-.386-.818V1.22M11.81 5.278l1.97-1.494c.39-.298.62-.76.622-1.251V1.22M8.664 1.22v.73c0 .822.467.9 1.205 1.258l1.328.653M23.58 3.861l.578-.185c.983-.302 1.694-1.157 1.811-2.178v-.355"/>
            </g>
        </g>
    </g>
</svg>
