<?xml version="1.0" encoding="utf-8"?>
<!-- Generator: Adobe Illustrator 26.5.0, SVG Export Plug-In . SVG Version: 6.00 Build 0)  -->
<svg version="1.1" id="Layer_1" xmlns="http://www.w3.org/2000/svg" xmlns:xlink="http://www.w3.org/1999/xlink" x="0px" y="0px"
	 viewBox="0 0 24 24" style="enable-background:new 0 0 24 24;" xml:space="preserve">
<style type="text/css">
	.st0{clip-path:url(#SVGID_00000063591675134647900220000001470859634549872059_);}
	.st1{fill-rule:evenodd;clip-rule:evenodd;fill:#FFFFFF;}
	.st2{fill:#FFFFFF;}
</style>
<g>
	<g>
		<defs>
			<rect id="SVGID_1_" x="0" width="24" height="24"/>
		</defs>
		<clipPath id="SVGID_00000036228835284004012630000011963629453022600066_">
			<use xlink:href="#SVGID_1_"  style="overflow:visible;"/>
		</clipPath>
		<g style="clip-path:url(#SVGID_00000036228835284004012630000011963629453022600066_);">
			<path class="st1" d="M15.3,6H8.1C6.9,6,6,7,6,8.1v7.1c0,1.1,0.9,2.1,2.1,2.1h7.1c1.1,0,2.1-0.9,2.1-2.1V8.1C17.4,7,16.4,6,15.3,6
				z M11.6,15.5c-2,0-3.7-1.7-3.7-3.7S9.6,8,11.6,8s3.7,1.7,3.7,3.7S13.8,15.5,11.6,15.5z M14.7,7.8c0,0.5,0.4,0.9,0.9,0.9
				s0.9-0.4,0.9-0.9s-0.4-0.9-0.9-0.9C15.1,7,14.7,7.4,14.7,7.8z"/>
			<path class="st2" d="M12.2,10c-1.2,0-2.1,1-2.1,2.1c0,1.2,1,2.1,2.1,2.1c1.2,0,2.1-1,2.1-2.1C14.4,11,13.4,10,12.2,10z"/>
			<path class="st1" d="M0,12.1C0,5.4,5.4,0,12.1,0s12.1,5.4,12.1,12.1s-5.4,12.1-12.1,12.1S0,18.7,0,12.1z M15.6,19.3
				c2,0,3.6-1.6,3.6-3.6V8.5c0-2-1.6-3.6-3.6-3.6H8.4c-2-0.1-3.6,1.6-3.6,3.6v7.1c0,2,1.6,3.6,3.6,3.6H15.6z"/>
		</g>
	</g>
</g>
</svg>
