<?xml version="1.0" encoding="utf-8"?>
<!-- Generator: Adobe Illustrator 26.5.0, SVG Export Plug-In . SVG Version: 6.00 Build 0)  -->
<svg version="1.1" id="Layer_1" xmlns="http://www.w3.org/2000/svg" xmlns:xlink="http://www.w3.org/1999/xlink" x="0px" y="0px"
	 viewBox="0 0 24 24" style="enable-background:new 0 0 24 24;" xml:space="preserve">
<style type="text/css">
	.st0{fill-rule:evenodd;clip-rule:evenodd;fill:#FFFFFF;}
</style>
<path class="st0" d="M24,12c0,6.6-5.4,12-12,12S0,18.6,0,12S5.4,0,12,0C18.7,0,24,5.4,24,12z M13.4,10.3L13.4,10.3
	c0.1-0.1,0.1-0.2,0.2-0.2c0.5-0.5,1-0.8,1.7-1C15.6,9,15.8,9,16.1,9c0.5,0,1,0.1,1.5,0.4c0.5,0.3,0.9,0.7,1.2,1.2
	c0.2,0.3,0.2,0.7,0.3,1c0,0.3,0.1,0.5,0.1,0.8v5.4v0.1c0,0,0,0-0.1,0h-2.5c-0.1,0-0.1,0-0.1-0.1c0-0.4,0-0.8,0-1.2
	c0-1.2,0-2.3,0-3.5c0-0.4-0.1-0.7-0.3-1.1c-0.2-0.4-0.5-0.6-0.9-0.6c-0.3-0.1-0.7,0-1,0.1c-0.4,0.1-0.6,0.4-0.8,0.8
	c-0.1,0.2-0.2,0.5-0.2,0.7c0,0.1,0,0.3,0,0.4v4.4l0,0c0,0.1,0,0.1-0.1,0.1h-1.8h-0.6h-0.1c0,0,0,0,0-0.1V9.5V9.4c0,0,0-0.1,0.1-0.1
	h0.7h1.7c0,0,0,0,0.1,0c0,0,0,0,0,0.1L13.4,10.3l-0.1,0.2C13.3,10.4,13.3,10.4,13.4,10.3z M6.3,9.4v4.2c0,1.4,0,2.8,0,4.3V18
	c0,0,0,0,0.1,0H9h0.1c0,0,0,0,0-0.1V9.4V9.3c0,0,0,0-0.1,0H7L6.3,9.4C6.3,9.3,6.3,9.3,6.3,9.4L6.3,9.4z M9.2,6.6
	c0,0.9-0.7,1.6-1.6,1.6S6,7.5,6,6.6S6.7,5,7.6,5S9.2,5.7,9.2,6.6z M21,8.6L21,8.6L21,8.6V8.5C21,8.5,21,8.5,21,8.6L21,8.6z M8.9,20
	L8.9,20C8.9,19.9,9,19.9,8.9,20C9,19.9,9,19.9,9.1,20H8.9z M9.6,17.2v0.2l0,0l0,0c0.1,0,0.1,0,0.1-0.1C9.8,17.1,9.7,17.2,9.6,17.2
	L9.6,17.2L9.6,17.2z M19.4,8.9L19.4,8.9C19.4,9,19.4,9,19.4,8.9C19.4,9,19.4,9,19.4,8.9C19.4,9,19.3,9,19.3,9S19.3,9,19.4,8.9
	L19.4,8.9L19.4,8.9L19.4,8.9z M6.1,7.6L6.1,7.6L6.1,7.6L6.1,7.6z"/>
</svg>
