<svg xmlns="http://www.w3.org/2000/svg" width="37" height="37" viewBox="0 0 37 37">
    <g fill="#126B39" fill-rule="evenodd">
        <path d="M10.294 36.228c-1.056-2.593-1.859-5.28-2.794-7.914-.2-.561-.147-.882.508-1.07 2.165-.654 4.318-1.363 6.47-2.045.495-.16.856.014 1.163.402 1.176 1.524 2.353 3.034 3.53 4.558 1.19 1.538 2.352 3.088 3.569 4.599.36.454.601.909.521 1.497-4.318-.027-8.65-.027-12.967-.027zM15.908 0c.254.468.762.628 1.163.91a213.917 213.917 0 0 0 4.626 3.087c.481.321.588.615.214 1.123-1.377 1.858-2.7 3.743-4.064 5.615-.268.374-.615.481-1.083.36-3.81-1.055-7.633-2.098-11.443-3.154-.16-.04-.428-.014-.455-.294-.027-.268.174-.401.361-.522C7.22 5.668 9.224 4.238 11.23 2.781 12.46 1.87 13.716.936 14.973 0h.935zM0 15.507c1.872-1.47 3.743-2.954 5.615-4.425.708-.561.909-.548 1.43.16 1.35 1.819 2.674 3.664 4.01 5.495.268.375.215.722-.04 1.096a312.515 312.515 0 0 0-2.299 3.476c-1.377 2.1-2.767 4.198-4.13 6.297-.148.227-.281.548-.535.521-.308-.027-.294-.4-.375-.642C2.486 23.823 1.31 20.16.12 16.497c-.013-.027-.067-.04-.107-.054C0 16.136 0 15.815 0 15.507zM24.745 31.95c-1.056 0-1.176-.106-1.176-.949 0-2.179.013-4.358-.014-6.55 0-.615.227-.963.829-1.177a1549.61 1549.61 0 0 0 11.002-4.144c.187-.067.375-.187.562-.027.214.174.08.348.013.535-1.23 3.743-2.473 7.487-3.676 11.243-.174.521-.415.789-.963.802-1.51.04-3.021.107-4.518.147-.762.027-1.524-.013-2.06.12zM24.986 14.05c-.16-2.94-.335-5.855-.495-8.77-.054-.909.027-1.818-.107-2.727-.027-.16-.08-.374.16-.454.241-.067.428.053.615.187 1.056.762 2.1 1.524 3.155 2.286 2.072 1.497 4.118 3.021 6.203 4.505.615.428.695.882.482 1.591a206.663 206.663 0 0 0-1.845 6.403c-.147.549-.388.656-.91.495-2.178-.655-4.29-1.51-6.496-2.072-.803-.214-.816-.815-.762-1.444z"/>
    </g>
</svg>
