<svg xmlns="http://www.w3.org/2000/svg" width="42" height="36" viewBox="0 0 42 36">
    <g fill="none" fill-rule="evenodd">
        <g stroke="#000">
            <path d="M41.344 28.158V17.305c.016-.263-.14-.507-.386-.602-.223-.097-.482-.056-.665.104-.123.09-.262.156-.409.197-.377.092-.69.357-.842.714-.112.282-.247.554-.401.815-1.238 2.15-3.595 3.404-6.07 3.231-.398-.024-.797.053-1.158.224-1.031.506-2.113.9-3.228 1.178-1.295.328-2.62.526-3.953.59-1.305.059-2.614.101-3.92.07-.99-.046-1.969.225-2.795.772-1.805 1.27-4.13 1.54-6.177.715-.835-.322-1.752-.366-2.614-.124-1.426.408-2.819.924-4.166 1.545-1.209.544-2.436 1.058-3.653 1.583-.453.16-.748.6-.726 1.08 0 .433.027 3.738 0 4.167-.02.33.101.651.334.886.232.234.553.359.883.342 1.305-.043 39.915-.109 39.915-.109l.03-6.525zM39.598 13.44c-.23.04-.457-.092-.536-.313-.557-1.667-1.78-3.029-3.379-3.76-1.427-.689-3.062-.81-4.575-.34-2.885.88-4.78 3.636-4.571 6.645.01.233-.156.438-.386.475l-5.792 1.158c-.227.043-.452-.084-.533-.301-.662-1.874-2.157-3.333-4.046-3.95-1.339-.46-2.795-.45-4.127.027-2.72.954-4.481 3.593-4.317 6.471.005.23-.16.429-.386.467l-1.05.213h-.097c-.602.13-.93-.058-1.066-.653-.101-.428-.18-.86-.235-1.297 0-.17.63-1.896.502-2.479-.332-1.517-1.012-8.05-1.012-9.367 0-.602-.266-.868-.857-.872-.257.014-.502-.11-.643-.326-.141-.216-.156-.49-.04-.72.131-.384.467-.662.868-.719C5.571 3.278 15.413.954 18.093.324c1.051-.265 2.165.017 2.965.75.95.857 1.822 1.683 2.772 2.459 1.43 1.207 3.351 1.653 5.166 1.2 1.274-.277 6.282-.594 7.49-.66 1.217-.077 2.309.742 2.576 1.93.038.182.444 2.99.614 3.785.1.463 1.309.938 1.382 1.258.104.433.205.873.282 1.313.032.196-.017.397-.136.556-.118.16-.297.264-.494.29l-1.112.235zM16.656 8.494l3.514-.73c.25-.052.413-.296.363-.548-.031-.147-.058-.285-.089-.428-.069-.262-.024-.541.122-.769.147-.228.383-.383.65-.428.255-.058.514-.105.772-.155l1.081-.228c-.166-.13-.305-.231-.432-.343-.884-.772-1.764-1.545-2.64-2.34-.417-.408-1.019-.562-1.58-.405-.664.173-1.332.316-2 .47l-.93.22c-.247.06-.403.304-.352.553.332 1.59.657 3.17.989 4.768.054.243.287.402.532.363zm-6.845 1.41l4.448-.92c.121-.025.227-.097.296-.2.068-.104.092-.23.067-.352-.325-1.567-.645-3.13-.973-4.706-.025-.124-.1-.232-.206-.3-.106-.068-.235-.089-.358-.06L8.656 4.403c-.246.059-.402.303-.351.552.32 1.544.633 3.054.954 4.59.025.122.097.228.2.295.105.068.23.09.352.064h0zM6.61 4.926c-.535.272-.856.837-.818 1.436v3.822c.003.137.068.264.175.348.108.084.247.115.38.085l1.082-.228c.121-.024.229-.096.297-.2.068-.104.092-.23.066-.352-.36-1.653-.7-3.301-1.043-4.958-.062.02-.109.035-.139.047z"/>
            <path d="M13.753 23.83c-2.576-.004-4.66-2.096-4.656-4.672.004-2.576 2.095-4.66 4.671-4.656 2.576.004 4.661 2.096 4.657 4.672-.002 1.237-.496 2.422-1.372 3.295-.876.874-2.063 1.363-3.3 1.361zm1.93-4.664c0-1.066-.864-1.93-1.93-1.93-1.054.016-1.9.876-1.9 1.93.116.971.94 1.703 1.917 1.703.978 0 1.802-.732 1.917-1.703h-.004zM32.95 19.838c-2.57 0-4.653-2.083-4.653-4.653 0-2.57 2.083-4.652 4.653-4.652 1.662 0 3.198.887 4.029 2.326.831 1.44.831 3.213 0 4.653-.831 1.44-2.367 2.326-4.03 2.326h0zm-1.9-4.633c.116.96.925 1.685 1.891 1.698.967.013 1.794-.692 1.935-1.648.11-.744-.221-1.483-.85-1.896-.627-.413-1.438-.423-2.077-.027-.638.396-.99 1.127-.899 1.873h0zM3.668 15.83c.028.32-.177.612-.487.695-.274.071-.553.126-.834.166-.18.043-.37.008-.523-.096-.152-.105-.254-.269-.28-.452-.345-1.64-.686-3.28-1.023-4.923-.108-.517-.212-1.035-.32-1.544-.053-.192-.02-.397.089-.563.11-.166.285-.276.482-.302.22-.047.444-.097.668-.14.197-.052.406-.017.575.097.168.114.278.296.302.498.177.87.356 1.74.536 2.607.259 1.25.522 2.502.772 3.752.019.068.033.136.043.205h0z"/>
        </g>
    </g>
</svg>
