<svg xmlns="http://www.w3.org/2000/svg" width="42" height="32" viewBox="0 0 42 32">
    <g fill="none" fill-rule="evenodd">
        <g stroke="#000">
            <path d="M35.521 28.085h3.386l2.576-5.483-3.861-13.76s2.992-.908 2.992-2.9c0-2.417-1.228-2.417-1.42-2.417H4.057C1.86 3.527.08 5.31.08 7.505v18.657c0 1.066.864 1.93 1.93 1.93h4.41M15.104 28.363h14.691"/>
            <path d="M18.402 13.081H24.78V28.363H18.402z"/>
            <rect width="8.247" height="5.826" x="5.649" y="8.842" rx=".347"/>
            <circle cx="9.278" cy="28.085" r="2.857"/>
            <circle cx="32.656" cy="28.085" r="2.857"/>
            <path d="M37.614 8.842h-7.819M33.707 9.162L33.707 17.873 40.147 17.873"/>
            <rect width="7.328" height="3.282" x="7.17" y=".247" rx=".653"/>
            <rect width="15.382" height="3.282" x="14.355" y=".247" rx=".653"/>
        </g>
    </g>
</svg>
