<?xml version="1.0" encoding="utf-8"?>
<!-- Generator: Adobe Illustrator 26.5.0, SVG Export Plug-In . SVG Version: 6.00 Build 0)  -->
<svg version="1.1" id="Layer_1" xmlns="http://www.w3.org/2000/svg" xmlns:xlink="http://www.w3.org/1999/xlink" x="0px" y="0px"
	 viewBox="0 0 24 24" style="enable-background:new 0 0 24 24;" xml:space="preserve">
<style type="text/css">
	.st0{fill:#FFFFFF;}
</style>
<g>
	<polygon class="st0" points="57.6,34.7 61.2,32.6 57.6,30.5 	"/>
	<path class="st0" d="M58.9,20.6c-6.6,0-12,5.4-12,12c0,6.6,5.4,12,12,12c6.6,0,12-5.4,12-12C70.9,25.9,65.5,20.6,58.9,20.6z
		 M65.6,35.9c-0.2,0.6-0.6,1.1-1.2,1.2c-1.7,0.4-9.3,0.4-10.9,0c-0.6-0.2-1.1-0.6-1.2-1.2c-0.4-1.6-0.4-5.1,0-6.7
		c0.2-0.6,0.6-1.1,1.2-1.2c2.3-0.5,10.1-0.3,10.9,0c0.6,0.2,1.1,0.6,1.2,1.2C66,30.9,66,34.2,65.6,35.9z"/>
</g>
<g>
	<polygon class="st0" points="10.6,14.1 14.3,12 10.6,9.9 	"/>
	<path class="st0" d="M12,0C5.4,0,0,5.4,0,12c0,6.6,5.4,12,12,12c6.6,0,12-5.4,12-12C24,5.4,18.6,0,12,0z M18.7,15.4
		c-0.2,0.6-0.6,1.1-1.2,1.2c-1.7,0.4-9.3,0.4-10.9,0c-0.6-0.2-1.1-0.6-1.2-1.2c-0.4-1.6-0.4-5.1,0-6.7C5.4,8,5.9,7.6,6.5,7.4
		c2.3-0.5,10.1-0.3,10.9,0c0.6,0.2,1.1,0.6,1.2,1.2C19.1,10.4,19.1,13.6,18.7,15.4z"/>
</g>
</svg>
